<svg id="svg" version="1.1" xmlns="http://www.w3.org/2000/svg" xmlns:xlink="http://www.w3.org/1999/xlink" width="400" height="52.94117647058824" viewBox="0, 0, 400,52.94117647058824"><g id="svgg"><path id="path0" d="M21.458 4.347 C 21.072 4.572,21.089 4.757,21.500 4.788 C 21.683 4.801,21.833 4.711,21.833 4.587 C 21.833 4.463,21.927 4.323,22.042 4.277 C 22.183 4.220,22.170 4.190,22.000 4.185 C 21.863 4.180,21.619 4.253,21.458 4.347 M30.973 4.313 C 31.095 4.390,31.207 4.519,31.223 4.598 C 31.250 4.741,31.833 4.896,31.833 4.761 C 31.833 4.576,31.278 4.167,31.030 4.169 C 30.813 4.171,30.800 4.203,30.973 4.313 M102.042 9.944 C 101.927 9.990,101.833 10.172,101.833 10.347 C 101.833 10.556,101.717 10.667,101.500 10.667 C 101.178 10.667,101.167 10.778,101.167 13.917 L 101.167 17.167 104.417 17.167 C 107.556 17.167,107.667 17.155,107.667 16.833 C 107.667 16.589,107.778 16.500,108.083 16.500 L 108.500 16.500 108.500 13.583 L 108.500 10.667 108.083 10.667 C 107.786 10.667,107.667 10.577,107.667 10.351 C 107.667 10.178,107.548 9.990,107.403 9.934 C 107.090 9.814,102.342 9.822,102.042 9.944 M62.944 11.444 C 62.883 11.506,62.833 11.693,62.833 11.861 C 62.833 12.112,62.699 12.167,62.083 12.167 C 61.444 12.167,61.333 12.216,61.333 12.500 C 61.333 12.778,61.222 12.833,60.667 12.833 C 60.111 12.833,60.000 12.889,60.000 13.167 C 60.000 13.424,59.889 13.500,59.514 13.500 C 58.810 13.500,58.500 13.659,58.500 14.018 C 58.500 14.243,58.381 14.333,58.083 14.333 C 57.778 14.333,57.667 14.422,57.667 14.667 C 57.667 14.889,57.556 15.000,57.333 15.000 C 57.089 15.000,57.000 15.111,57.000 15.417 C 57.000 15.722,56.911 15.833,56.667 15.833 C 56.444 15.833,56.333 15.944,56.333 16.167 C 56.333 16.411,56.222 16.500,55.917 16.500 C 55.583 16.500,55.500 16.583,55.500 16.917 C 55.500 17.222,55.411 17.333,55.167 17.333 C 54.890 17.333,54.833 17.444,54.833 17.988 C 54.833 18.541,54.775 18.652,54.458 18.697 C 54.118 18.745,54.079 18.853,54.034 19.875 C 53.991 20.863,53.945 21.000,53.659 21.000 C 53.344 21.000,53.333 21.145,53.333 25.333 C 53.333 29.556,53.342 29.667,53.667 29.667 C 53.966 29.667,54.000 29.778,54.000 30.750 C 54.000 31.794,54.015 31.833,54.417 31.833 C 54.799 31.833,54.833 31.894,54.833 32.583 C 54.833 33.222,54.883 33.333,55.167 33.333 C 55.411 33.333,55.500 33.444,55.500 33.750 C 55.500 34.083,55.583 34.167,55.917 34.167 C 56.222 34.167,56.333 34.256,56.333 34.500 C 56.333 34.722,56.444 34.833,56.667 34.833 C 56.894 34.833,57.000 34.944,57.000 35.182 C 57.000 35.391,57.134 35.566,57.333 35.618 C 57.518 35.667,57.667 35.846,57.667 36.019 C 57.667 36.243,57.786 36.333,58.083 36.333 C 58.389 36.333,58.500 36.422,58.500 36.667 C 58.500 36.885,58.611 37.000,58.822 37.000 C 59.029 37.000,59.163 37.134,59.197 37.375 C 59.241 37.687,59.369 37.759,59.958 37.801 C 60.531 37.843,60.667 37.915,60.667 38.176 C 60.667 38.448,60.785 38.500,61.405 38.500 C 62.044 38.500,62.151 38.551,62.197 38.875 C 62.245 39.212,62.356 39.255,63.292 39.300 C 64.197 39.343,64.333 39.392,64.333 39.675 C 64.333 39.987,64.472 40.000,67.667 40.000 C 70.862 40.000,71.000 39.987,71.000 39.675 C 71.000 39.392,71.137 39.343,72.042 39.300 C 72.977 39.255,73.089 39.212,73.137 38.875 C 73.186 38.531,73.277 38.500,74.262 38.500 C 75.209 38.500,75.333 38.463,75.333 38.178 C 75.333 37.971,75.467 37.837,75.708 37.803 C 75.949 37.769,76.102 37.616,76.137 37.375 C 76.171 37.134,76.305 37.000,76.512 37.000 C 76.722 37.000,76.833 36.885,76.833 36.667 C 76.833 36.444,76.944 36.333,77.167 36.333 C 77.480 36.333,77.500 36.222,77.500 34.500 C 77.500 32.778,77.480 32.667,77.167 32.667 C 76.944 32.667,76.833 32.556,76.833 32.333 C 76.833 32.114,76.722 32.000,76.510 32.000 C 76.248 32.000,76.176 31.864,76.135 31.292 C 76.084 30.589,76.078 30.583,75.385 30.533 C 74.813 30.491,74.678 30.416,74.635 30.116 C 74.548 29.503,72.500 29.464,72.500 30.075 C 72.500 30.468,72.443 30.500,71.750 30.500 C 71.111 30.500,71.000 30.549,71.000 30.833 C 71.000 31.078,70.889 31.167,70.583 31.167 C 70.250 31.167,70.167 31.250,70.167 31.583 L 70.167 32.000 68.012 32.000 C 65.904 32.000,65.855 31.992,65.803 31.625 C 65.759 31.313,65.631 31.241,65.042 31.199 C 64.469 31.157,64.333 31.085,64.333 30.824 C 64.333 30.551,64.215 30.500,63.583 30.500 C 62.894 30.500,62.833 30.466,62.833 30.083 C 62.833 29.778,62.744 29.667,62.500 29.667 C 62.222 29.667,62.167 29.556,62.167 29.000 C 62.167 28.400,62.125 28.333,61.750 28.333 L 61.333 28.333 61.333 25.762 C 61.333 23.221,61.338 23.189,61.708 23.137 C 62.020 23.092,62.092 22.964,62.135 22.375 C 62.176 21.802,62.248 21.667,62.510 21.667 C 62.744 21.667,62.833 21.551,62.833 21.250 C 62.833 20.917,62.917 20.833,63.250 20.833 C 63.556 20.833,63.667 20.744,63.667 20.500 C 63.667 20.222,63.778 20.167,64.333 20.167 C 64.889 20.167,65.000 20.111,65.000 19.833 C 65.000 19.549,65.111 19.500,65.750 19.500 C 66.439 19.500,66.500 19.466,66.500 19.083 C 66.500 18.679,66.533 18.667,67.667 18.667 C 68.800 18.667,68.833 18.679,68.833 19.083 C 68.833 19.485,68.872 19.500,69.917 19.500 C 70.889 19.500,71.000 19.534,71.000 19.833 C 71.000 20.056,71.111 20.167,71.333 20.167 C 71.556 20.167,71.667 20.278,71.667 20.500 C 71.667 20.813,71.778 20.833,73.500 20.833 C 75.222 20.833,75.333 20.813,75.333 20.500 C 75.333 20.256,75.444 20.167,75.750 20.167 C 76.056 20.167,76.167 20.078,76.167 19.833 C 76.167 19.611,76.278 19.500,76.500 19.500 C 76.744 19.500,76.833 19.389,76.833 19.083 C 76.833 18.778,76.922 18.667,77.167 18.667 C 77.483 18.667,77.500 18.556,77.500 16.500 C 77.500 14.444,77.483 14.333,77.167 14.333 C 76.951 14.333,76.833 14.222,76.833 14.018 C 76.833 13.659,76.523 13.500,75.820 13.500 C 75.444 13.500,75.333 13.424,75.333 13.167 C 75.333 12.944,75.222 12.833,75.000 12.833 C 74.778 12.833,74.667 12.722,74.667 12.500 C 74.667 12.201,74.556 12.167,73.601 12.167 C 72.604 12.167,72.529 12.140,72.432 11.750 L 72.327 11.333 67.691 11.333 C 65.142 11.333,63.006 11.383,62.944 11.444 M85.000 19.083 C 85.000 19.466,84.939 19.500,84.250 19.500 C 83.611 19.500,83.500 19.549,83.500 19.833 C 83.500 20.117,83.389 20.167,82.750 20.167 C 82.061 20.167,82.000 20.201,82.000 20.583 C 82.000 20.889,81.911 21.000,81.667 21.000 C 81.444 21.000,81.333 21.111,81.333 21.333 C 81.333 21.578,81.222 21.667,80.917 21.667 C 80.611 21.667,80.500 21.756,80.500 22.000 C 80.500 22.222,80.389 22.333,80.167 22.333 C 79.883 22.333,79.833 22.444,79.833 23.083 C 79.833 23.772,79.799 23.833,79.417 23.833 C 79.034 23.833,79.000 23.894,79.000 24.583 C 79.000 25.222,78.951 25.333,78.667 25.333 C 78.343 25.333,78.333 25.444,78.333 29.000 C 78.333 32.556,78.343 32.667,78.667 32.667 C 78.966 32.667,79.000 32.778,79.000 33.750 C 79.000 34.794,79.015 34.833,79.417 34.833 C 79.717 34.833,79.833 34.923,79.833 35.155 C 79.833 35.333,79.983 35.525,80.167 35.583 C 80.350 35.642,80.500 35.834,80.500 36.011 C 80.500 36.244,80.616 36.333,80.917 36.333 C 81.222 36.333,81.333 36.422,81.333 36.667 C 81.333 36.889,81.444 37.000,81.667 37.000 C 81.911 37.000,82.000 37.111,82.000 37.417 C 82.000 37.722,82.089 37.833,82.333 37.833 C 82.556 37.833,82.667 37.944,82.667 38.167 C 82.667 38.451,82.778 38.500,83.417 38.500 C 84.041 38.500,84.167 38.553,84.167 38.816 C 84.167 39.211,84.479 39.333,85.494 39.333 C 86.154 39.333,86.310 39.392,86.382 39.667 C 86.515 40.178,91.500 40.186,91.500 39.675 C 91.500 39.392,91.637 39.343,92.542 39.300 C 93.477 39.255,93.589 39.212,93.637 38.875 C 93.683 38.551,93.789 38.500,94.428 38.500 C 95.056 38.500,95.167 38.450,95.167 38.167 C 95.167 37.922,95.278 37.833,95.583 37.833 C 95.917 37.833,96.000 37.750,96.000 37.417 C 96.000 37.111,96.089 37.000,96.333 37.000 C 96.556 37.000,96.667 36.889,96.667 36.667 C 96.667 36.439,96.778 36.333,97.016 36.333 C 97.222 36.333,97.399 36.200,97.450 36.006 C 97.497 35.825,97.678 35.633,97.851 35.578 C 98.025 35.523,98.167 35.333,98.167 35.155 C 98.167 34.944,98.282 34.833,98.500 34.833 C 98.799 34.833,98.833 34.722,98.833 33.750 C 98.833 32.706,98.848 32.667,99.250 32.667 L 99.667 32.667 99.667 29.000 L 99.667 25.333 99.250 25.333 C 98.867 25.333,98.833 25.272,98.833 24.583 C 98.833 23.944,98.784 23.833,98.500 23.833 C 98.216 23.833,98.167 23.722,98.167 23.083 C 98.167 22.460,98.114 22.333,97.853 22.333 C 97.679 22.333,97.500 22.184,97.452 22.000 C 97.400 21.801,97.224 21.667,97.016 21.667 C 96.778 21.667,96.667 21.561,96.667 21.333 C 96.667 21.115,96.556 21.000,96.345 21.000 C 96.138 21.000,96.004 20.866,95.970 20.625 C 95.926 20.313,95.797 20.241,95.208 20.199 C 94.636 20.157,94.500 20.085,94.500 19.824 C 94.500 19.551,94.381 19.500,93.750 19.500 C 93.061 19.500,93.000 19.466,93.000 19.083 L 93.000 18.667 89.000 18.667 L 85.000 18.667 85.000 19.083 M102.570 19.078 C 102.479 19.439,102.370 19.500,101.815 19.500 L 101.167 19.500 101.167 29.330 L 101.167 39.160 101.542 39.253 C 102.753 39.551,107.583 39.252,107.637 38.875 C 107.675 38.604,107.802 38.500,108.095 38.500 L 108.500 38.500 108.500 29.333 L 108.500 20.167 108.083 20.167 C 107.778 20.167,107.667 20.078,107.667 19.833 C 107.667 19.615,107.556 19.500,107.345 19.500 C 107.138 19.500,107.004 19.366,106.970 19.125 C 106.918 18.761,106.852 18.749,104.796 18.703 L 102.676 18.657 102.570 19.078 M112.167 19.083 C 112.167 19.466,112.106 19.500,111.417 19.500 L 110.667 19.500 110.667 29.000 C 110.667 38.275,110.674 38.500,110.988 38.500 C 111.195 38.500,111.329 38.634,111.363 38.875 C 111.462 39.569,117.333 39.525,117.333 38.830 C 117.333 38.611,117.446 38.500,117.667 38.500 C 117.993 38.500,118.000 38.389,118.000 33.333 C 118.000 28.278,118.007 28.167,118.333 28.167 C 118.556 28.167,118.667 28.056,118.667 27.833 C 118.667 27.589,118.778 27.500,119.083 27.500 C 119.389 27.500,119.500 27.411,119.500 27.167 C 119.500 26.868,119.611 26.833,120.583 26.833 C 121.556 26.833,121.667 26.868,121.667 27.167 C 121.667 27.411,121.778 27.500,122.083 27.500 C 122.389 27.500,122.500 27.589,122.500 27.833 C 122.500 28.056,122.611 28.167,122.833 28.167 C 123.159 28.167,123.167 28.278,123.167 33.333 C 123.167 38.389,123.174 38.500,123.500 38.500 C 123.716 38.500,123.833 38.611,123.833 38.816 C 123.833 39.288,124.121 39.334,127.055 39.331 C 130.446 39.328,130.500 39.315,130.500 38.481 C 130.500 37.944,130.557 37.833,130.833 37.833 C 131.160 37.833,131.167 37.722,131.167 32.333 C 131.167 26.944,131.160 26.833,130.833 26.833 C 130.525 26.833,130.500 26.722,130.500 25.333 C 130.500 23.944,130.475 23.833,130.167 23.833 C 129.944 23.833,129.833 23.722,129.833 23.500 C 129.833 23.256,129.722 23.167,129.417 23.167 C 129.034 23.167,129.000 23.106,129.000 22.417 C 129.000 21.778,128.951 21.667,128.667 21.667 C 128.444 21.667,128.333 21.556,128.333 21.333 C 128.333 21.089,128.222 21.000,127.917 21.000 C 127.583 21.000,127.500 20.917,127.500 20.583 C 127.500 20.208,127.433 20.167,126.833 20.167 C 126.278 20.167,126.167 20.111,126.167 19.833 C 126.167 19.532,126.056 19.500,125.000 19.500 C 123.863 19.500,123.833 19.489,123.833 19.078 L 123.833 18.655 122.042 18.703 C 120.327 18.748,120.248 18.766,120.197 19.125 C 120.145 19.488,120.084 19.500,118.322 19.500 L 116.500 19.500 116.500 19.083 L 116.500 18.667 114.333 18.667 L 112.167 18.667 112.167 19.083 M138.667 19.083 C 138.667 19.466,138.606 19.500,137.917 19.500 C 137.278 19.500,137.167 19.549,137.167 19.833 C 137.167 20.117,137.056 20.167,136.417 20.167 C 135.767 20.167,135.667 20.213,135.667 20.516 C 135.667 20.724,135.533 20.900,135.333 20.952 C 135.149 21.000,135.000 21.179,135.000 21.353 C 135.000 21.576,134.880 21.667,134.583 21.667 C 134.278 21.667,134.167 21.756,134.167 22.000 C 134.167 22.222,134.056 22.333,133.833 22.333 C 133.549 22.333,133.500 22.444,133.500 23.083 C 133.500 23.772,133.466 23.833,133.083 23.833 C 132.701 23.833,132.667 23.894,132.667 24.583 C 132.667 25.222,132.617 25.333,132.333 25.333 C 132.009 25.333,132.000 25.444,132.000 29.333 C 132.000 33.222,132.009 33.333,132.333 33.333 C 132.617 33.333,132.667 33.444,132.667 34.083 C 132.667 34.772,132.701 34.833,133.083 34.833 C 133.466 34.833,133.500 34.894,133.500 35.583 C 133.500 36.222,133.549 36.333,133.833 36.333 C 134.056 36.333,134.167 36.444,134.167 36.667 C 134.167 36.911,134.278 37.000,134.583 37.000 C 134.917 37.000,135.000 37.083,135.000 37.417 C 135.000 37.722,135.089 37.833,135.333 37.833 C 135.556 37.833,135.667 37.944,135.667 38.167 C 135.667 38.450,135.778 38.500,136.405 38.500 C 137.044 38.500,137.151 38.551,137.197 38.875 C 137.245 39.212,137.356 39.255,138.292 39.300 C 139.197 39.343,139.333 39.392,139.333 39.675 C 139.333 39.989,139.480 40.000,143.750 40.000 C 148.056 40.000,148.167 39.992,148.167 39.667 C 148.167 39.386,148.279 39.333,148.875 39.331 C 149.891 39.328,150.333 39.175,150.333 38.825 C 150.333 38.639,150.477 38.503,150.708 38.470 C 151.078 38.417,151.083 38.382,151.083 35.917 C 151.083 33.451,151.078 33.416,150.708 33.363 C 150.467 33.329,150.333 33.195,150.333 32.988 C 150.333 32.778,150.218 32.667,150.000 32.667 C 149.756 32.667,149.667 32.556,149.667 32.250 C 149.667 31.944,149.756 31.833,150.000 31.833 C 150.222 31.833,150.333 31.722,150.333 31.500 C 150.333 31.256,150.444 31.167,150.750 31.167 C 151.056 31.167,151.167 31.078,151.167 30.833 C 151.167 30.611,151.278 30.500,151.500 30.500 C 151.784 30.500,151.833 30.389,151.833 29.750 C 151.833 29.111,151.883 29.000,152.167 29.000 C 152.483 29.000,152.500 28.889,152.500 26.833 C 152.500 24.778,152.483 24.667,152.167 24.667 C 151.867 24.667,151.833 24.556,151.833 23.568 C 151.833 22.609,151.791 22.458,151.500 22.382 C 151.316 22.333,151.167 22.154,151.167 21.981 C 151.167 21.757,151.047 21.667,150.750 21.667 C 150.453 21.667,150.333 21.576,150.333 21.353 C 150.333 21.179,150.184 21.000,150.000 20.952 C 149.801 20.900,149.667 20.724,149.667 20.516 C 149.667 20.255,149.562 20.167,149.250 20.167 C 148.944 20.167,148.833 20.078,148.833 19.833 C 148.833 19.557,148.722 19.500,148.185 19.500 C 147.632 19.500,147.521 19.438,147.432 19.083 L 147.327 18.667 142.997 18.667 L 138.667 18.667 138.667 19.083 M155.500 19.083 C 155.500 19.466,155.439 19.500,154.750 19.500 L 154.000 19.500 154.000 29.326 L 154.000 39.152 154.542 39.250 C 156.121 39.537,160.582 39.262,160.637 38.875 C 160.671 38.634,160.805 38.500,161.012 38.500 C 161.323 38.500,161.333 38.323,161.333 33.000 L 161.333 27.500 161.750 27.500 C 162.051 27.500,162.167 27.410,162.167 27.176 C 162.167 26.915,162.302 26.843,162.875 26.801 C 163.464 26.759,163.592 26.687,163.637 26.375 C 163.715 25.826,164.333 25.863,164.333 26.417 L 164.333 26.833 166.500 26.833 L 168.667 26.833 168.667 26.083 C 168.667 25.394,168.701 25.333,169.083 25.333 L 169.500 25.333 169.500 22.417 L 169.500 19.500 168.750 19.500 C 168.059 19.500,168.000 19.467,168.000 19.079 L 168.000 18.658 165.458 18.704 C 162.965 18.749,162.916 18.757,162.863 19.125 C 162.776 19.739,160.086 19.700,159.932 19.083 L 159.827 18.667 157.663 18.667 L 155.500 18.667 155.500 19.083 M23.533 20.533 C 23.217 20.850,23.294 21.146,23.667 21.048 C 23.850 21.000,24.000 20.864,24.000 20.744 C 24.000 20.625,24.094 20.490,24.208 20.444 C 24.323 20.397,24.263 20.354,24.075 20.346 C 23.887 20.339,23.643 20.423,23.533 20.533 M4.339 21.489 C 4.244 21.666,4.167 21.897,4.167 22.001 C 4.167 22.251,4.728 21.686,4.771 21.393 C 4.820 21.056,4.537 21.119,4.339 21.489 M48.194 21.523 C 48.225 21.740,48.325 21.898,48.417 21.875 C 48.663 21.813,48.619 21.290,48.361 21.204 C 48.209 21.153,48.156 21.253,48.194 21.523 M22.006 22.156 C 21.767 22.602,21.785 22.648,22.167 22.548 C 22.351 22.500,22.500 22.321,22.500 22.147 C 22.500 21.740,22.226 21.744,22.006 22.156 M89.363 26.375 C 89.408 26.687,89.536 26.759,90.125 26.801 C 90.698 26.843,90.833 26.915,90.833 27.176 C 90.833 27.389,90.948 27.500,91.167 27.500 C 91.475 27.500,91.500 27.611,91.500 29.000 C 91.500 30.389,91.475 30.500,91.167 30.500 C 90.944 30.500,90.833 30.611,90.833 30.833 C 90.833 31.054,90.722 31.167,90.503 31.167 C 90.290 31.167,90.136 31.314,90.068 31.583 C 89.971 31.973,89.896 32.000,88.899 32.000 C 87.873 32.000,87.833 31.984,87.833 31.583 C 87.833 31.201,87.772 31.167,87.083 31.167 L 86.333 31.167 86.333 29.333 L 86.333 27.500 86.750 27.500 C 87.051 27.500,87.167 27.410,87.167 27.176 C 87.167 26.915,87.302 26.843,87.875 26.801 C 88.464 26.759,88.592 26.687,88.637 26.375 C 88.670 26.140,88.805 26.000,89.000 26.000 C 89.195 26.000,89.330 26.140,89.363 26.375 M144.500 26.750 L 144.500 27.500 142.667 27.500 C 140.944 27.500,140.833 27.480,140.833 27.167 C 140.833 26.944,140.944 26.833,141.167 26.833 C 141.411 26.833,141.500 26.722,141.500 26.417 C 141.500 26.003,141.511 26.000,143.000 26.000 L 144.500 26.000 144.500 26.750 M21.833 30.277 C 21.833 30.481,22.196 31.000,22.339 31.000 C 22.649 31.000,22.497 30.372,22.167 30.285 C 21.983 30.237,21.833 30.233,21.833 30.277 M4.167 30.832 C 4.167 31.116,4.491 31.667,4.658 31.667 C 4.738 31.667,4.789 31.565,4.771 31.440 C 4.728 31.147,4.167 30.583,4.167 30.832 M48.281 30.942 C 48.103 31.119,48.147 31.667,48.339 31.667 C 48.585 31.667,48.740 31.173,48.553 30.986 C 48.466 30.899,48.343 30.879,48.281 30.942 M23.333 31.899 C 23.333 32.212,23.699 32.501,24.075 32.487 C 24.263 32.480,24.323 32.436,24.208 32.390 C 24.094 32.343,24.000 32.208,24.000 32.089 C 24.000 31.970,23.850 31.833,23.667 31.785 C 23.469 31.733,23.333 31.780,23.333 31.899 M146.667 32.333 C 146.667 32.632,146.556 32.667,145.583 32.667 C 144.611 32.667,144.500 32.701,144.500 33.000 C 144.500 33.284,144.389 33.333,143.750 33.333 C 143.111 33.333,143.000 33.284,143.000 33.000 C 143.000 32.701,142.889 32.667,141.917 32.667 C 140.944 32.667,140.833 32.632,140.833 32.333 C 140.833 32.013,140.944 32.000,143.750 32.000 C 146.556 32.000,146.667 32.013,146.667 32.333 M21.167 48.196 C 21.167 48.391,21.828 48.698,22.051 48.607 C 22.199 48.547,22.197 48.523,22.042 48.513 C 21.927 48.506,21.833 48.392,21.833 48.260 C 21.833 48.123,21.690 48.031,21.500 48.046 C 21.317 48.060,21.167 48.127,21.167 48.196 M31.061 48.203 C 31.017 48.275,31.041 48.334,31.115 48.336 C 31.189 48.337,31.137 48.411,31.000 48.500 C 30.784 48.639,30.788 48.662,31.030 48.664 C 31.272 48.666,31.833 48.259,31.833 48.082 C 31.833 47.965,31.141 48.074,31.061 48.203 " stroke="none" fill="#fcfcfc" fill-rule="evenodd"></path><path id="path1" d="M22.582 4.165 C 22.639 4.256,22.578 4.289,22.447 4.239 C 22.302 4.183,22.176 4.280,22.121 4.490 C 22.056 4.739,21.913 4.822,21.595 4.796 C 21.319 4.773,21.189 4.682,21.241 4.547 C 21.349 4.266,21.084 4.274,20.798 4.559 C 20.570 4.787,19.730 5.011,19.048 5.027 C 18.845 5.032,18.695 5.112,18.714 5.206 C 18.734 5.299,18.646 5.413,18.518 5.459 C 18.363 5.516,18.330 5.473,18.419 5.329 C 18.506 5.189,18.485 5.156,18.359 5.234 C 18.253 5.299,18.167 5.457,18.167 5.583 C 18.167 5.710,18.080 5.867,17.974 5.933 C 17.848 6.011,17.823 5.971,17.902 5.817 C 17.969 5.689,17.800 5.834,17.528 6.140 C 17.071 6.655,17.020 6.674,16.855 6.390 C 16.757 6.221,16.675 6.167,16.672 6.270 C 16.669 6.373,16.535 6.456,16.375 6.455 C 15.753 6.453,15.634 6.507,15.726 6.748 C 15.779 6.884,15.768 6.988,15.702 6.978 C 15.433 6.938,15.229 7.025,14.833 7.348 L 14.417 7.689 14.833 7.500 L 15.250 7.311 14.846 7.636 C 14.624 7.815,14.324 7.943,14.179 7.919 C 13.793 7.856,13.597 8.019,13.857 8.188 C 14.182 8.397,13.702 8.698,13.222 8.585 C 12.740 8.472,12.294 8.657,12.397 8.926 C 12.506 9.211,12.071 9.563,11.758 9.443 C 11.619 9.389,11.381 9.508,11.210 9.716 C 11.044 9.918,10.798 10.107,10.663 10.137 C 10.350 10.205,10.204 10.352,10.137 10.667 C 10.107 10.804,9.944 11.020,9.775 11.146 C 9.526 11.331,9.510 11.404,9.691 11.519 C 9.880 11.639,9.880 11.662,9.691 11.664 C 9.564 11.666,9.504 11.771,9.555 11.903 C 9.646 12.140,9.250 12.412,8.894 12.357 C 8.612 12.313,8.454 12.868,8.703 13.026 C 8.876 13.136,8.876 13.162,8.701 13.164 C 8.582 13.166,8.507 13.298,8.534 13.458 C 8.567 13.652,8.475 13.750,8.264 13.751 C 8.064 13.751,7.935 13.876,7.920 14.085 C 7.906 14.269,7.800 14.569,7.685 14.751 C 7.475 15.082,7.475 15.082,7.567 14.750 C 7.642 14.482,7.603 14.497,7.372 14.830 C 7.213 15.057,6.944 15.383,6.774 15.555 C 6.429 15.904,6.365 16.131,6.346 17.052 C 6.339 17.401,6.267 17.645,6.186 17.595 C 6.104 17.545,5.936 17.630,5.811 17.784 C 5.618 18.022,5.619 18.043,5.817 17.923 C 5.976 17.827,6.013 17.844,5.933 17.974 C 5.867 18.080,5.710 18.167,5.583 18.167 C 5.457 18.167,5.299 18.253,5.234 18.359 C 5.156 18.485,5.189 18.506,5.329 18.419 C 5.473 18.330,5.516 18.363,5.459 18.518 C 5.413 18.646,5.281 18.728,5.167 18.702 C 5.045 18.673,4.998 18.754,5.053 18.898 C 5.153 19.159,4.931 19.970,4.560 20.692 C 4.273 21.251,4.275 21.345,4.570 21.232 C 4.891 21.109,4.813 21.562,4.443 21.971 C 4.283 22.147,4.165 22.357,4.179 22.437 C 4.194 22.518,4.191 22.640,4.173 22.708 C 4.129 22.872,4.129 29.962,4.173 30.125 C 4.191 30.194,4.194 30.316,4.179 30.396 C 4.165 30.476,4.283 30.686,4.443 30.862 C 4.813 31.271,4.891 31.725,4.570 31.601 C 4.275 31.488,4.273 31.582,4.560 32.141 C 4.931 32.864,5.153 33.674,5.053 33.936 C 4.998 34.080,5.045 34.160,5.167 34.132 C 5.281 34.105,5.413 34.188,5.459 34.315 C 5.516 34.470,5.473 34.503,5.329 34.414 C 5.189 34.327,5.156 34.348,5.234 34.474 C 5.299 34.580,5.457 34.667,5.583 34.667 C 5.710 34.667,5.867 34.753,5.933 34.859 C 6.013 34.990,5.976 35.006,5.817 34.910 C 5.619 34.791,5.618 34.811,5.811 35.050 C 5.936 35.204,6.104 35.289,6.186 35.238 C 6.315 35.158,6.381 35.599,6.378 36.538 C 6.378 36.696,6.455 36.778,6.550 36.719 C 6.658 36.653,6.682 36.721,6.614 36.898 C 6.552 37.058,6.572 37.142,6.659 37.088 C 6.744 37.035,6.940 37.258,7.094 37.582 C 7.394 38.215,7.728 38.547,7.564 38.050 C 7.509 37.885,7.610 37.975,7.789 38.250 C 7.967 38.525,8.233 38.849,8.380 38.971 C 8.527 39.092,8.606 39.298,8.556 39.429 C 8.504 39.562,8.564 39.668,8.691 39.669 C 8.871 39.671,8.873 39.699,8.703 39.808 C 8.454 39.965,8.612 40.520,8.894 40.477 C 9.250 40.422,9.646 40.694,9.555 40.930 C 9.504 41.062,9.564 41.168,9.691 41.169 C 9.880 41.171,9.880 41.195,9.691 41.315 C 9.510 41.429,9.526 41.502,9.775 41.687 C 9.944 41.813,10.107 42.029,10.137 42.167 C 10.204 42.482,10.350 42.628,10.663 42.696 C 10.798 42.726,11.044 42.915,11.210 43.117 C 11.381 43.325,11.619 43.444,11.758 43.390 C 12.075 43.269,12.506 43.624,12.395 43.914 C 12.300 44.160,12.894 44.419,13.167 44.250 C 13.444 44.079,13.975 44.326,14.087 44.678 C 14.144 44.858,14.244 44.972,14.308 44.932 C 14.373 44.892,14.611 45.009,14.838 45.191 L 15.250 45.522 14.833 45.333 L 14.417 45.144 14.833 45.485 C 15.063 45.673,15.389 45.828,15.559 45.830 C 15.761 45.832,15.837 45.918,15.776 46.075 C 15.711 46.244,15.764 46.286,15.952 46.213 C 16.126 46.147,16.180 46.176,16.106 46.296 C 16.032 46.416,16.111 46.459,16.329 46.418 C 16.515 46.382,16.669 46.442,16.672 46.551 C 16.675 46.661,16.757 46.612,16.855 46.443 C 17.020 46.159,17.071 46.178,17.528 46.693 C 17.800 46.999,17.969 47.145,17.902 47.016 C 17.823 46.862,17.848 46.823,17.974 46.901 C 18.080 46.966,18.167 47.123,18.167 47.250 C 18.167 47.377,18.253 47.534,18.359 47.599 C 18.485 47.677,18.506 47.644,18.419 47.504 C 18.330 47.361,18.363 47.318,18.518 47.374 C 18.646 47.420,18.734 47.535,18.714 47.628 C 18.695 47.721,18.845 47.801,19.048 47.806 C 19.730 47.822,20.570 48.047,20.798 48.274 C 21.084 48.560,21.349 48.567,21.241 48.287 C 21.189 48.151,21.319 48.060,21.595 48.037 C 21.913 48.011,22.056 48.094,22.121 48.343 C 22.176 48.553,22.302 48.650,22.447 48.595 C 22.578 48.544,22.639 48.577,22.582 48.669 C 22.526 48.759,22.635 48.833,22.823 48.833 C 23.012 48.833,23.167 48.777,23.167 48.708 C 23.167 48.640,24.667 48.583,26.500 48.583 C 28.334 48.583,29.834 48.640,29.833 48.708 C 29.833 48.777,29.950 48.833,30.093 48.833 C 30.241 48.833,30.304 48.754,30.239 48.649 C 30.162 48.525,30.241 48.501,30.479 48.577 C 30.697 48.646,30.833 48.617,30.833 48.501 C 30.833 48.398,30.907 48.359,30.998 48.415 C 31.089 48.472,31.122 48.411,31.072 48.279 C 31.008 48.113,31.104 48.042,31.394 48.042 C 31.676 48.042,31.779 48.114,31.719 48.271 C 31.604 48.569,31.904 48.567,32.152 48.268 C 32.341 48.040,33.183 47.830,33.984 47.811 C 34.240 47.805,34.310 47.755,34.178 47.674 C 33.987 47.556,34.301 47.312,34.705 47.264 C 34.772 47.256,34.950 47.074,35.101 46.859 C 35.308 46.564,35.491 46.485,35.854 46.539 C 36.118 46.577,36.333 46.554,36.333 46.487 C 36.333 46.420,36.495 46.407,36.693 46.459 C 36.962 46.529,37.018 46.497,36.915 46.331 C 36.815 46.169,36.855 46.139,37.065 46.220 C 37.222 46.280,37.309 46.263,37.259 46.181 C 37.069 45.873,39.171 44.263,39.710 44.304 C 40.164 44.338,40.869 43.768,40.693 43.508 C 40.665 43.467,40.802 43.374,40.998 43.301 C 41.194 43.229,41.308 43.094,41.251 43.001 C 41.194 42.909,41.231 42.833,41.335 42.833 C 41.449 42.833,41.482 42.980,41.419 43.208 C 41.317 43.576,41.322 43.575,41.709 43.167 C 41.927 42.938,42.207 42.727,42.333 42.698 C 42.664 42.623,42.965 42.153,42.883 41.840 C 42.798 41.513,43.499 40.722,44.066 40.506 C 44.480 40.349,44.570 39.851,44.271 39.368 C 44.113 39.112,44.281 38.833,44.593 38.833 C 44.725 38.833,44.833 38.716,44.833 38.573 C 44.833 38.431,44.908 38.360,45.000 38.417 C 45.092 38.473,45.168 38.421,45.170 38.302 C 45.172 38.182,45.331 37.896,45.523 37.667 L 45.873 37.250 45.590 37.723 C 45.434 37.983,45.345 38.234,45.391 38.280 C 45.437 38.326,45.602 38.114,45.757 37.807 C 45.912 37.501,46.180 37.095,46.353 36.906 C 46.562 36.676,46.647 36.384,46.606 36.032 C 46.571 35.732,46.648 35.376,46.784 35.210 C 46.917 35.049,46.970 35.022,46.903 35.151 C 46.823 35.306,46.848 35.344,46.977 35.264 C 47.084 35.198,47.141 35.093,47.104 35.030 C 47.013 34.878,47.761 33.803,47.937 33.834 C 48.013 33.847,48.102 33.778,48.135 33.679 C 48.168 33.581,48.127 33.500,48.045 33.500 C 47.853 33.500,47.915 32.084,48.107 32.081 C 48.334 32.077,48.667 31.828,48.667 31.662 C 48.667 31.579,48.554 31.554,48.417 31.606 C 48.234 31.677,48.167 31.586,48.167 31.268 C 48.167 30.790,48.311 30.724,48.667 31.042 C 48.863 31.216,48.868 31.207,48.702 30.985 C 48.592 30.839,48.552 30.670,48.612 30.610 C 48.939 30.283,48.823 28.519,48.467 28.406 C 48.115 28.295,48.115 28.289,48.438 28.105 C 48.728 27.939,48.767 27.736,48.767 26.417 C 48.767 25.098,48.728 24.894,48.438 24.729 C 48.115 24.544,48.115 24.539,48.467 24.427 C 48.823 24.314,48.939 22.550,48.612 22.224 C 48.552 22.163,48.592 21.995,48.702 21.849 C 48.868 21.626,48.863 21.617,48.667 21.792 C 48.311 22.109,48.167 22.044,48.167 21.566 C 48.167 21.248,48.234 21.157,48.417 21.227 C 48.554 21.280,48.667 21.255,48.667 21.171 C 48.667 21.005,48.334 20.757,48.107 20.753 C 47.915 20.749,47.853 19.333,48.045 19.333 C 48.127 19.333,48.168 19.253,48.135 19.154 C 48.102 19.056,48.022 18.999,47.957 19.029 C 47.808 19.098,47.013 17.955,47.104 17.803 C 47.141 17.741,47.084 17.635,46.977 17.569 C 46.848 17.489,46.823 17.527,46.903 17.683 C 46.970 17.811,46.917 17.785,46.784 17.623 C 46.648 17.457,46.571 17.101,46.606 16.801 C 46.647 16.449,46.562 16.157,46.353 15.928 C 46.180 15.738,45.912 15.333,45.757 15.026 C 45.602 14.720,45.437 14.507,45.391 14.553 C 45.345 14.600,45.434 14.851,45.590 15.111 L 45.873 15.583 45.523 15.167 C 45.331 14.938,45.172 14.656,45.170 14.542 C 45.168 14.427,45.092 14.333,45.000 14.333 C 44.908 14.333,44.852 14.240,44.875 14.125 C 44.898 14.010,44.823 13.935,44.708 13.958 C 44.594 13.981,44.489 13.906,44.475 13.792 C 44.461 13.677,44.440 13.508,44.429 13.417 C 44.417 13.325,44.349 13.156,44.277 13.042 C 44.204 12.924,44.224 12.833,44.323 12.833 C 44.664 12.833,44.496 12.490,44.077 12.331 C 43.501 12.112,42.797 11.323,42.883 10.993 C 42.965 10.680,42.664 10.210,42.333 10.135 C 42.207 10.107,41.927 9.896,41.709 9.667 C 41.322 9.258,41.317 9.257,41.419 9.625 C 41.482 9.853,41.449 10.000,41.335 10.000 C 41.231 10.000,41.194 9.924,41.251 9.832 C 41.308 9.739,41.181 9.600,40.969 9.521 C 40.757 9.443,40.593 9.312,40.605 9.231 C 40.668 8.808,40.174 8.457,39.659 8.560 C 39.234 8.645,39.150 8.617,39.227 8.416 C 39.280 8.279,39.246 8.167,39.152 8.167 C 39.057 8.167,39.037 8.073,39.105 7.958 C 39.191 7.817,39.140 7.823,38.949 7.979 C 38.784 8.112,38.667 8.134,38.667 8.032 C 38.667 7.935,38.524 7.811,38.350 7.755 C 37.906 7.614,37.151 6.826,37.273 6.630 C 37.328 6.540,37.196 6.562,36.978 6.677 C 36.618 6.869,36.604 6.863,36.812 6.611 C 37.058 6.313,36.867 6.258,35.809 6.326 C 35.515 6.345,35.277 6.226,35.097 5.969 C 34.949 5.757,34.772 5.577,34.705 5.569 C 34.301 5.521,33.987 5.278,34.178 5.160 C 34.310 5.078,34.240 5.029,33.984 5.022 C 33.183 5.003,32.341 4.793,32.152 4.566 C 31.904 4.267,31.604 4.264,31.719 4.563 C 31.779 4.719,31.676 4.792,31.394 4.792 C 31.104 4.792,31.008 4.720,31.072 4.554 C 31.122 4.422,31.089 4.361,30.998 4.418 C 30.907 4.474,30.833 4.435,30.833 4.332 C 30.833 4.216,30.697 4.187,30.479 4.257 C 30.241 4.332,30.162 4.309,30.239 4.185 C 30.304 4.080,30.241 4.000,30.093 4.000 C 29.950 4.000,29.833 4.056,29.833 4.125 C 29.834 4.194,28.334 4.250,26.500 4.250 C 24.667 4.250,23.167 4.194,23.167 4.125 C 23.167 4.056,23.012 4.000,22.823 4.000 C 22.635 4.000,22.526 4.074,22.582 4.165 M268.295 9.954 C 268.594 9.991,269.044 9.990,269.295 9.952 C 269.545 9.914,269.300 9.884,268.750 9.885 C 268.200 9.886,267.995 9.917,268.295 9.954 M265.078 22.750 C 265.078 28.342,265.099 30.605,265.125 27.780 C 265.151 24.954,265.151 20.379,265.125 17.613 C 265.099 14.847,265.078 17.158,265.078 22.750 M27.533 16.042 C 27.566 17.094,27.644 18.528,27.695 19.014 C 27.710 19.159,27.803 19.288,27.903 19.301 C 28.002 19.314,28.451 19.359,28.901 19.402 C 29.738 19.482,30.066 19.729,29.906 20.162 C 29.856 20.296,29.869 20.353,29.934 20.288 C 30.070 20.153,30.530 20.482,30.431 20.644 C 30.395 20.702,30.581 20.758,30.845 20.767 C 31.128 20.778,31.281 20.716,31.219 20.617 C 31.153 20.509,31.200 20.502,31.349 20.597 C 31.478 20.678,31.633 20.746,31.694 20.747 C 31.756 20.749,31.868 20.818,31.944 20.902 C 32.025 20.990,31.996 21.003,31.875 20.934 C 31.760 20.868,31.667 20.885,31.667 20.972 C 31.667 21.060,31.785 21.177,31.931 21.232 C 32.076 21.288,32.162 21.427,32.123 21.542 C 32.083 21.656,32.109 21.956,32.181 22.208 C 32.315 22.685,31.837 22.995,31.299 22.779 C 31.180 22.732,31.308 22.678,31.583 22.660 L 32.083 22.627 31.583 22.516 C 31.252 22.443,31.091 22.309,31.106 22.121 C 31.119 21.965,31.062 21.878,30.981 21.928 C 30.900 21.979,30.827 21.921,30.820 21.802 C 30.810 21.636,30.787 21.633,30.723 21.790 C 30.660 21.947,30.579 21.936,30.390 21.747 C 30.252 21.609,30.052 21.547,29.945 21.609 C 29.838 21.670,29.799 21.666,29.858 21.599 C 29.918 21.532,29.693 21.203,29.358 20.867 L 28.750 20.256 27.172 20.225 C 26.305 20.207,25.453 20.269,25.280 20.362 C 25.062 20.478,24.908 20.474,24.782 20.349 C 24.504 20.071,24.333 20.130,24.333 20.505 C 24.333 20.695,24.182 20.900,23.991 20.971 C 23.803 21.040,23.556 21.282,23.443 21.507 C 23.317 21.759,23.104 21.910,22.891 21.899 C 22.631 21.885,22.564 21.958,22.625 22.190 C 22.684 22.419,22.615 22.500,22.359 22.500 C 22.168 22.500,21.931 22.650,21.833 22.833 C 21.735 23.017,21.720 23.167,21.800 23.167 C 21.958 23.167,21.960 23.659,21.802 23.920 C 21.625 24.212,21.685 29.238,21.868 29.458 C 21.989 29.605,21.983 29.667,21.848 29.667 C 21.707 29.667,21.703 29.756,21.833 30.000 C 21.931 30.183,22.122 30.333,22.256 30.333 C 22.473 30.333,22.571 30.528,22.523 30.865 C 22.514 30.928,22.637 30.955,22.795 30.925 C 23.092 30.868,23.428 31.123,23.445 31.417 C 23.450 31.508,23.652 31.681,23.894 31.801 C 24.144 31.924,24.333 32.158,24.333 32.342 C 24.333 32.521,24.413 32.667,24.510 32.667 C 24.607 32.667,24.633 32.580,24.567 32.474 C 24.485 32.341,24.521 32.328,24.683 32.432 C 24.811 32.515,25.854 32.586,27.000 32.590 C 29.153 32.597,29.606 32.471,29.396 31.922 C 29.339 31.774,29.358 31.675,29.438 31.702 C 29.518 31.728,29.759 31.574,29.974 31.360 C 30.213 31.121,30.487 31.001,30.682 31.052 C 30.857 31.098,31.049 31.056,31.109 30.959 C 31.173 30.855,31.139 30.831,31.026 30.901 C 30.756 31.067,30.786 30.857,31.071 30.571 C 31.340 30.303,32.245 30.239,32.083 30.500 C 32.027 30.592,32.062 30.667,32.161 30.667 C 32.274 30.667,32.245 30.854,32.084 31.165 C 31.943 31.439,31.830 31.716,31.835 31.779 C 31.844 31.915,31.458 32.013,30.750 32.057 C 30.091 32.098,29.841 32.273,29.912 32.643 C 30.008 33.139,29.726 33.400,29.095 33.400 C 28.670 33.400,28.499 33.474,28.497 33.658 C 28.496 33.824,28.451 33.851,28.372 33.734 C 28.202 33.478,27.722 33.509,27.722 33.775 C 27.722 33.950,27.776 33.953,27.986 33.792 C 28.149 33.667,28.129 33.731,27.936 33.958 C 27.748 34.177,27.610 34.615,27.594 35.038 C 27.579 35.430,27.552 36.219,27.534 36.792 L 27.500 37.833 26.417 37.833 L 25.333 37.833 25.304 36.208 C 25.287 35.315,25.274 34.456,25.274 34.300 C 25.275 34.144,25.200 34.063,25.109 34.119 C 25.011 34.179,24.987 34.108,25.049 33.947 C 25.187 33.586,24.759 33.378,23.955 33.415 C 23.319 33.444,22.883 33.158,23.079 32.841 C 23.175 32.685,22.964 32.594,22.628 32.646 C 22.561 32.656,22.378 32.459,22.220 32.207 C 22.063 31.956,21.907 31.715,21.875 31.671 C 21.842 31.628,21.737 31.703,21.642 31.838 C 21.503 32.034,21.489 32.020,21.572 31.766 C 21.684 31.423,21.063 30.608,20.809 30.765 C 20.731 30.813,20.500 30.736,20.297 30.593 C 20.093 30.450,20.003 30.333,20.096 30.333 C 20.190 30.333,20.357 30.408,20.467 30.499 C 20.578 30.591,20.567 30.550,20.445 30.408 C 20.322 30.266,20.059 30.138,19.861 30.123 C 19.662 30.108,19.494 30.018,19.486 29.923 C 19.382 28.637,19.488 23.254,19.618 23.211 C 19.710 23.180,19.928 23.039,20.101 22.898 C 20.275 22.757,20.304 22.698,20.167 22.766 C 19.944 22.877,20.036 22.731,20.650 22.000 C 20.688 21.954,20.666 22.067,20.600 22.250 C 20.514 22.489,20.648 22.421,21.074 22.008 C 21.503 21.593,21.642 21.339,21.573 21.092 C 21.505 20.848,21.523 20.814,21.634 20.974 C 21.757 21.151,21.897 21.093,22.300 20.699 C 22.581 20.425,22.768 20.157,22.715 20.104 C 22.662 20.051,22.742 19.961,22.893 19.903 C 23.043 19.845,23.167 19.710,23.167 19.603 C 23.167 19.482,23.435 19.415,23.875 19.426 C 24.763 19.449,25.189 19.253,25.049 18.887 C 24.983 18.716,25.010 18.653,25.120 18.721 C 25.216 18.781,25.292 18.737,25.288 18.623 C 25.284 18.510,25.293 17.648,25.307 16.708 L 25.333 15.000 26.417 15.000 L 27.500 15.000 27.533 16.042 M229.238 30.196 C 229.238 30.465,229.261 30.466,229.536 30.218 C 229.699 30.070,229.833 29.939,229.833 29.927 C 229.833 29.915,229.699 29.905,229.536 29.905 C 229.364 29.905,229.238 30.028,229.238 30.196 M196.047 30.817 C 196.032 31.015,196.159 31.168,196.387 31.225 C 196.739 31.314,196.741 31.310,196.426 31.075 C 196.249 30.942,196.197 30.833,196.311 30.833 C 196.426 30.833,196.473 30.758,196.417 30.667 C 196.252 30.400,196.073 30.473,196.047 30.817 M187.515 31.528 C 187.605 31.696,187.770 31.827,187.881 31.820 C 188.035 31.810,188.036 31.788,187.884 31.726 C 187.775 31.682,187.722 31.550,187.767 31.434 C 187.811 31.317,187.736 31.222,187.600 31.222 C 187.411 31.222,187.390 31.295,187.515 31.528 M170.734 33.474 C 170.799 33.580,170.774 33.667,170.677 33.667 C 170.579 33.667,170.500 33.742,170.500 33.833 C 170.500 34.088,170.786 34.031,170.892 33.755 C 170.943 33.621,170.902 33.459,170.800 33.396 C 170.688 33.327,170.662 33.358,170.734 33.474 M258.708 39.286 C 258.960 39.324,259.373 39.324,259.625 39.286 C 259.877 39.248,259.671 39.217,259.167 39.217 C 258.662 39.217,258.456 39.248,258.708 39.286 M271.458 39.289 C 271.848 39.324,272.485 39.324,272.875 39.289 C 273.265 39.254,272.946 39.225,272.167 39.225 C 271.387 39.225,271.069 39.254,271.458 39.289 " stroke="none" fill="#4c93e4" fill-rule="evenodd"></path><path id="path2" d="M23.167 4.125 C 23.167 4.194,24.667 4.250,26.500 4.250 C 28.334 4.250,29.834 4.194,29.833 4.125 C 29.833 4.056,28.333 4.000,26.500 4.000 C 24.667 4.000,23.167 4.056,23.167 4.125 M17.532 5.574 C 16.936 6.138,16.796 6.360,16.944 6.509 C 17.092 6.659,17.202 6.582,17.407 6.186 C 17.554 5.900,17.753 5.667,17.847 5.667 C 17.942 5.667,17.966 5.753,17.901 5.859 C 17.826 5.979,17.855 6.006,17.977 5.931 C 18.084 5.865,18.135 5.751,18.090 5.677 C 17.943 5.440,18.640 4.954,18.995 5.047 C 19.181 5.096,19.292 5.068,19.240 4.984 C 19.011 4.613,18.281 4.864,17.532 5.574 M34.154 4.980 C 34.377 5.042,34.593 5.195,34.634 5.319 C 34.686 5.474,34.636 5.504,34.480 5.413 C 34.353 5.340,34.308 5.344,34.380 5.423 C 34.451 5.501,34.626 5.582,34.768 5.603 C 35.237 5.672,35.500 5.820,35.500 6.015 C 35.500 6.147,35.408 6.135,35.208 5.979 C 34.944 5.771,34.938 5.777,35.145 6.042 C 35.271 6.202,35.552 6.333,35.770 6.333 L 36.167 6.333 35.799 5.958 C 35.140 5.286,34.442 4.833,34.093 4.850 C 33.796 4.864,33.804 4.882,34.154 4.980 M14.872 6.792 C 13.244 7.891,12.528 8.945,13.650 8.589 C 14.011 8.474,14.137 8.167,13.823 8.167 C 13.726 8.167,13.690 8.096,13.744 8.010 C 13.797 7.924,13.974 7.880,14.137 7.911 C 14.300 7.942,14.617 7.820,14.842 7.640 L 15.250 7.311 14.833 7.508 C 14.534 7.650,14.621 7.512,15.139 7.019 C 15.971 6.229,15.853 6.128,14.872 6.792 M37.738 6.895 C 38.065 7.203,38.333 7.509,38.333 7.573 C 38.333 7.933,38.804 8.152,39.020 7.893 C 39.207 7.668,39.178 7.583,38.828 7.321 C 38.602 7.152,38.217 6.861,37.974 6.674 C 37.259 6.125,37.090 6.283,37.738 6.895 M37.425 7.045 C 37.470 7.162,37.674 7.359,37.878 7.484 C 38.233 7.700,38.231 7.690,37.846 7.272 C 37.395 6.782,37.306 6.734,37.425 7.045 M39.083 8.000 C 39.027 8.092,39.057 8.167,39.152 8.167 C 39.246 8.167,39.280 8.279,39.227 8.417 C 39.119 8.698,39.298 8.737,39.656 8.510 C 39.854 8.385,39.858 8.314,39.677 8.096 C 39.426 7.794,39.230 7.762,39.083 8.000 M11.931 9.013 C 11.694 9.295,11.501 9.614,11.503 9.721 C 11.504 9.860,11.541 9.863,11.628 9.733 C 11.695 9.632,11.921 9.460,12.130 9.350 C 12.338 9.240,12.460 9.070,12.400 8.973 C 12.340 8.876,12.394 8.731,12.520 8.651 C 12.663 8.560,12.677 8.504,12.556 8.503 C 12.450 8.501,12.169 8.731,11.931 9.013 M40.701 9.033 C 40.721 9.277,40.788 9.445,40.850 9.406 C 41.009 9.308,41.354 9.758,41.221 9.890 C 41.160 9.951,41.204 10.000,41.317 10.000 C 41.595 10.000,41.392 9.347,40.981 8.920 C 40.666 8.592,40.664 8.593,40.701 9.033 M256.625 9.961 C 256.465 9.996,256.333 10.169,256.333 10.346 C 256.333 10.573,256.217 10.667,255.936 10.667 L 255.539 10.667 255.511 13.818 C 255.491 16.123,255.537 17.003,255.684 17.094 C 255.804 17.168,255.841 17.148,255.777 17.043 C 255.717 16.947,255.789 16.822,255.936 16.766 C 256.127 16.692,256.176 16.735,256.107 16.915 C 256.023 17.134,256.411 17.167,259.089 17.167 C 262.056 17.167,262.167 17.155,262.167 16.833 C 262.167 16.609,262.278 16.500,262.505 16.500 C 262.833 16.500,262.843 16.409,262.825 13.583 C 262.808 10.824,262.790 10.667,262.487 10.667 C 262.311 10.667,262.167 10.583,262.167 10.481 C 262.167 10.377,262.020 10.333,261.833 10.382 C 261.650 10.430,261.500 10.401,261.500 10.318 C 261.500 10.235,261.631 10.159,261.792 10.150 C 261.952 10.140,261.822 10.071,261.503 9.996 C 260.935 9.863,257.201 9.836,256.625 9.961 M266.233 10.028 C 266.184 10.107,266.072 10.128,265.984 10.074 C 265.897 10.020,265.836 10.037,265.849 10.113 C 265.914 10.489,265.802 10.667,265.500 10.667 C 265.317 10.667,265.166 10.760,265.164 10.875 C 265.154 11.840,265.144 35.818,265.154 36.042 C 265.161 36.218,265.299 36.333,265.500 36.333 C 265.808 36.333,265.977 37.015,265.846 37.729 C 265.832 37.809,265.926 37.833,266.056 37.783 C 266.361 37.666,266.667 37.972,266.550 38.277 C 266.500 38.407,266.525 38.502,266.605 38.487 C 267.055 38.405,267.333 38.533,267.333 38.823 C 267.333 39.204,267.018 39.171,271.333 39.233 C 275.172 39.288,275.333 39.272,275.333 38.822 C 275.333 38.534,275.508 38.423,275.872 38.479 C 276.107 38.515,276.170 37.732,276.105 35.583 C 276.022 32.863,275.999 32.763,275.433 32.696 C 275.061 32.652,275.015 32.600,275.177 32.405 C 275.285 32.274,275.327 32.157,275.270 32.146 C 275.213 32.134,275.092 32.106,275.000 32.083 C 274.908 32.060,274.290 32.032,273.625 32.021 L 272.417 32.000 272.467 22.042 C 272.522 11.068,272.503 10.654,271.949 10.712 C 271.660 10.742,271.592 10.671,271.623 10.375 C 271.645 10.169,271.570 9.991,271.456 9.981 C 270.360 9.880,266.302 9.916,266.233 10.028 M42.839 11.042 C 42.847 11.366,43.575 12.115,44.017 12.254 C 44.344 12.357,44.281 12.240,43.669 11.607 C 42.844 10.753,42.831 10.744,42.839 11.042 M8.918 11.998 C 8.656 12.272,8.492 12.547,8.554 12.609 C 8.616 12.671,8.667 12.627,8.667 12.510 C 8.667 12.387,8.775 12.339,8.923 12.396 C 9.069 12.452,9.220 12.388,9.274 12.248 C 9.326 12.113,9.447 12.051,9.543 12.110 C 9.651 12.177,9.668 12.137,9.588 12.007 C 9.512 11.884,9.553 11.735,9.687 11.651 C 9.875 11.532,9.869 11.505,9.656 11.503 C 9.513 11.501,9.181 11.724,8.918 11.998 M44.313 12.984 C 44.439 13.064,44.492 13.212,44.429 13.313 C 44.308 13.509,44.498 13.968,44.708 13.988 C 44.777 13.995,44.837 14.056,44.842 14.125 C 44.847 14.194,45.035 14.346,45.259 14.464 C 45.483 14.581,45.667 14.759,45.667 14.859 C 45.667 14.972,45.560 14.954,45.388 14.812 C 45.145 14.613,45.147 14.643,45.407 15.042 C 45.741 15.556,45.875 15.636,45.719 15.229 C 45.627 14.988,45.664 14.990,46.058 15.248 C 46.575 15.588,46.651 15.355,46.167 14.917 C 45.983 14.751,45.833 14.545,45.833 14.460 C 45.833 14.249,44.457 12.839,44.250 12.839 C 44.158 12.839,44.187 12.904,44.313 12.984 M7.898 13.463 C 7.377 13.961,6.333 15.459,6.333 15.709 C 6.333 15.793,6.638 15.536,7.009 15.139 C 7.428 14.692,7.645 14.544,7.580 14.750 C 7.475 15.082,7.475 15.082,7.685 14.751 C 7.800 14.569,7.906 14.269,7.920 14.085 C 7.935 13.876,8.064 13.751,8.264 13.751 C 8.451 13.750,8.562 13.653,8.533 13.515 C 8.505 13.386,8.580 13.219,8.700 13.143 C 8.866 13.037,8.855 13.005,8.650 13.003 C 8.503 13.001,8.165 13.208,7.898 13.463 M5.536 17.563 C 4.872 18.284,4.545 19.333,4.984 19.333 C 5.067 19.333,5.096 19.181,5.047 18.995 C 4.954 18.640,5.440 17.943,5.677 18.090 C 5.751 18.135,5.865 18.084,5.931 17.977 C 6.006 17.855,5.979 17.826,5.859 17.901 C 5.512 18.115,5.658 17.692,6.018 17.439 C 6.212 17.304,6.340 17.105,6.305 16.997 C 6.269 16.889,5.923 17.144,5.536 17.563 M27.542 17.583 C 27.544 17.950,27.578 18.080,27.618 17.873 C 27.658 17.666,27.656 17.366,27.615 17.206 C 27.573 17.047,27.540 17.217,27.542 17.583 M46.591 17.155 C 46.538 17.240,46.646 17.357,46.831 17.416 C 47.016 17.475,47.167 17.597,47.167 17.688 C 47.167 17.779,47.080 17.799,46.974 17.734 C 46.854 17.660,46.827 17.688,46.902 17.810 C 46.969 17.918,47.093 17.962,47.178 17.910 C 47.264 17.857,47.333 17.875,47.333 17.950 C 47.333 18.025,47.483 18.180,47.667 18.295 C 48.171 18.609,48.067 18.305,47.436 17.616 C 46.836 16.961,46.742 16.910,46.591 17.155 M25.145 18.458 C 25.054 18.998,25.066 19.333,25.178 19.333 C 25.251 19.333,25.305 19.108,25.297 18.833 C 25.284 18.375,25.196 18.158,25.145 18.458 M174.842 18.828 C 174.730 18.897,174.645 19.002,174.652 19.060 C 174.702 19.432,174.589 19.500,173.917 19.500 C 173.278 19.500,173.167 19.549,173.167 19.833 C 173.167 20.021,173.056 20.167,172.913 20.167 C 172.773 20.167,172.587 20.354,172.500 20.583 C 172.403 20.838,172.211 21.000,172.004 21.000 C 171.778 21.000,171.667 21.110,171.667 21.333 C 171.667 21.551,171.556 21.667,171.346 21.667 C 171.041 21.667,171.024 21.826,171.007 24.917 C 170.990 28.079,170.998 28.167,171.328 28.167 C 171.638 28.167,171.803 28.801,171.686 29.542 C 171.676 29.610,171.854 29.667,172.083 29.667 C 172.417 29.667,172.500 29.750,172.500 30.083 C 172.500 30.389,172.589 30.500,172.833 30.500 C 173.056 30.500,173.167 30.611,173.167 30.833 C 173.167 31.048,173.278 31.167,173.480 31.167 C 173.847 31.167,174.219 31.554,174.040 31.750 C 173.972 31.825,173.994 31.843,174.087 31.790 C 174.181 31.737,174.519 31.755,174.837 31.830 C 175.258 31.929,174.904 31.971,173.542 31.983 C 171.783 31.999,171.667 32.021,171.667 32.333 C 171.667 32.556,171.556 32.667,171.333 32.667 C 171.132 32.667,170.995 32.782,170.987 32.958 C 170.953 33.740,170.766 34.155,170.546 33.935 C 170.480 33.869,170.537 33.745,170.671 33.660 C 170.881 33.528,170.877 33.505,170.644 33.503 C 170.289 33.499,170.236 33.763,170.196 35.708 C 170.173 36.815,170.222 37.333,170.349 37.333 C 170.452 37.333,170.494 37.442,170.443 37.574 C 170.373 37.756,170.521 37.827,171.050 37.866 C 171.597 37.906,171.745 37.980,171.727 38.208 C 171.708 38.445,171.841 38.500,172.435 38.500 C 173.097 38.500,173.195 38.562,173.154 38.952 C 173.133 39.159,173.723 39.310,174.606 39.322 C 175.316 39.331,175.459 39.383,175.440 39.625 C 175.418 39.894,175.674 39.917,178.667 39.917 C 181.660 39.917,181.915 39.894,181.894 39.625 C 181.875 39.386,182.010 39.333,182.644 39.331 C 183.737 39.328,184.167 39.182,184.167 38.814 C 184.167 38.551,184.294 38.500,184.944 38.500 C 185.372 38.500,185.675 38.453,185.617 38.395 C 185.408 38.185,185.832 37.677,186.128 37.783 C 186.287 37.840,186.367 37.831,186.305 37.762 C 186.244 37.694,186.273 37.412,186.369 37.136 C 186.498 36.765,186.581 36.693,186.689 36.859 C 186.931 37.235,187.161 36.689,187.164 35.728 C 187.166 35.000,187.219 34.859,187.517 34.781 C 187.834 34.698,187.862 34.591,187.809 33.638 C 187.748 32.543,187.742 32.551,188.500 32.646 C 188.592 32.657,188.667 33.004,188.667 33.417 C 188.667 33.860,188.743 34.167,188.854 34.167 C 188.991 34.167,188.992 34.226,188.855 34.390 C 188.638 34.652,188.770 34.833,189.179 34.833 C 189.387 34.833,189.444 34.928,189.382 35.167 C 189.315 35.422,189.377 35.500,189.644 35.500 C 189.878 35.500,190.028 35.638,190.098 35.917 C 190.164 36.177,190.321 36.333,190.518 36.333 C 190.722 36.333,190.833 36.451,190.833 36.667 C 190.833 36.889,190.944 37.000,191.167 37.000 C 191.350 37.000,191.509 37.075,191.521 37.167 C 191.532 37.258,191.551 37.420,191.563 37.526 C 191.574 37.632,191.726 37.739,191.900 37.765 C 192.255 37.817,192.525 38.158,192.387 38.381 C 192.338 38.461,192.436 38.512,192.607 38.494 C 193.470 38.403,193.962 38.507,193.940 38.776 C 193.904 39.199,194.646 39.321,197.238 39.318 C 199.946 39.316,200.333 39.253,200.333 38.815 C 200.333 38.553,200.459 38.500,201.083 38.500 C 201.775 38.500,201.917 38.597,201.857 39.029 C 201.830 39.228,202.700 39.316,204.750 39.322 C 207.175 39.329,207.667 39.247,207.667 38.832 C 207.667 38.639,207.807 38.503,208.042 38.470 L 208.417 38.417 208.459 29.267 C 208.486 23.392,208.441 20.047,208.335 19.919 C 208.244 19.809,208.219 19.670,208.279 19.610 C 208.340 19.549,208.308 19.500,208.208 19.500 C 208.109 19.500,207.990 19.594,207.944 19.708 C 207.876 19.875,207.857 19.875,207.846 19.708 C 207.839 19.594,207.621 19.500,207.362 19.500 C 206.980 19.500,206.893 19.429,206.903 19.125 C 206.922 18.594,202.815 18.527,202.737 19.057 C 202.673 19.489,202.618 19.519,201.859 19.530 C 201.380 19.536,201.162 19.618,201.111 19.811 C 201.050 20.041,201.036 20.037,201.019 19.784 C 201.009 19.620,200.906 19.498,200.792 19.512 C 199.723 19.651,198.854 19.482,198.803 19.125 C 198.752 18.765,198.685 18.750,197.083 18.750 C 195.515 18.750,195.407 18.772,195.252 19.125 C 195.116 19.435,194.956 19.500,194.327 19.500 C 193.909 19.500,193.466 19.594,193.342 19.708 C 193.161 19.877,193.143 19.872,193.251 19.683 C 193.344 19.521,193.322 19.487,193.181 19.574 C 193.069 19.644,193.018 19.805,193.067 19.934 C 193.129 20.094,193.029 20.167,192.745 20.167 C 192.417 20.167,192.333 20.251,192.333 20.583 C 192.333 20.931,192.250 21.003,191.833 21.021 C 190.976 21.057,190.917 21.077,190.917 21.333 C 190.917 21.471,190.767 21.625,190.583 21.675 C 190.369 21.734,190.257 21.898,190.270 22.133 C 190.281 22.335,190.225 22.500,190.145 22.500 C 190.065 22.500,190.000 22.650,190.000 22.833 C 190.000 23.056,189.889 23.167,189.667 23.167 C 189.426 23.167,189.333 23.278,189.333 23.565 C 189.333 23.842,189.245 23.956,189.042 23.940 C 188.807 23.921,188.731 24.096,188.652 24.833 C 188.598 25.337,188.542 25.656,188.527 25.542 C 188.512 25.427,188.378 25.333,188.230 25.333 C 188.025 25.333,188.003 25.387,188.142 25.553 C 188.275 25.714,188.261 25.862,188.087 26.111 C 187.827 26.483,187.637 31.606,187.879 31.738 C 187.950 31.777,187.913 31.787,187.796 31.761 C 187.679 31.735,187.593 31.594,187.605 31.447 C 187.618 31.300,187.547 31.196,187.448 31.215 C 187.252 31.253,186.956 29.722,187.089 29.355 C 187.147 29.194,187.072 29.153,186.836 29.214 C 186.651 29.263,186.542 29.234,186.593 29.151 C 186.644 29.068,186.607 29.000,186.510 29.000 C 186.413 29.000,186.333 28.850,186.333 28.667 C 186.333 28.444,186.222 28.333,186.000 28.333 C 185.705 28.333,185.576 28.075,185.647 27.625 C 185.658 27.556,185.479 27.500,185.250 27.500 C 184.944 27.500,184.833 27.411,184.833 27.167 C 184.833 26.983,184.777 26.842,184.708 26.853 C 183.698 27.013,182.700 26.803,182.626 26.417 C 182.547 26.005,182.560 26.000,183.690 26.000 C 184.583 26.000,184.833 25.947,184.833 25.756 C 184.833 25.484,185.397 25.119,185.561 25.284 C 185.619 25.342,185.667 25.189,185.667 24.944 C 185.667 24.616,185.751 24.500,185.989 24.500 C 186.292 24.500,186.312 24.365,186.312 22.333 C 186.312 20.350,186.286 20.167,186.009 20.167 C 185.842 20.167,185.671 20.035,185.629 19.874 C 185.568 19.641,185.336 19.570,184.491 19.528 C 183.321 19.471,183.014 19.367,183.357 19.146 C 184.029 18.712,175.541 18.396,174.842 18.828 M212.167 19.102 C 212.167 19.463,212.097 19.500,211.407 19.500 C 210.987 19.500,210.689 19.569,210.742 19.653 C 210.865 19.853,210.353 20.365,210.153 20.242 C 210.069 20.190,210.000 20.339,210.000 20.573 C 210.000 20.899,209.911 21.005,209.625 21.019 C 209.343 21.034,209.322 21.058,209.542 21.115 C 209.702 21.157,209.833 21.254,209.833 21.330 C 209.833 21.406,209.683 21.429,209.498 21.381 C 209.136 21.287,209.070 21.951,209.417 22.206 C 209.525 22.285,209.521 22.329,209.405 22.331 C 209.304 22.332,209.231 22.643,209.238 23.042 C 209.249 23.668,209.292 23.746,209.616 23.712 C 209.941 23.678,209.988 23.763,210.033 24.462 C 210.073 25.093,210.141 25.245,210.375 25.227 C 210.656 25.205,210.683 25.280,210.733 26.244 C 210.742 26.424,210.900 26.649,211.083 26.744 C 211.267 26.839,211.417 27.029,211.417 27.167 C 211.417 27.304,211.585 27.441,211.792 27.470 C 212.166 27.523,212.243 27.757,212.173 28.625 C 212.151 28.903,212.232 29.000,212.488 29.000 C 212.800 29.000,212.931 29.264,212.847 29.727 C 212.833 29.806,212.955 29.980,213.119 30.114 C 213.283 30.248,213.311 30.303,213.183 30.237 C 213.029 30.157,212.989 30.181,213.067 30.308 C 213.133 30.413,213.294 30.500,213.427 30.500 C 213.559 30.500,213.667 30.650,213.667 30.833 C 213.667 31.056,213.778 31.167,214.000 31.167 C 214.276 31.167,214.333 31.278,214.333 31.814 C 214.333 32.318,214.406 32.480,214.662 32.547 C 214.898 32.609,215.023 32.833,215.104 33.339 C 215.181 33.825,215.312 34.069,215.525 34.125 C 215.695 34.169,215.833 34.347,215.833 34.519 C 215.833 34.692,215.927 34.834,216.042 34.836 C 216.193 34.838,216.187 34.879,216.020 34.984 C 215.894 35.064,215.843 35.214,215.907 35.317 C 215.971 35.421,216.089 35.465,216.170 35.415 C 216.340 35.310,216.703 35.908,216.558 36.053 C 216.504 36.107,216.657 36.200,216.897 36.260 C 217.262 36.352,217.333 36.463,217.333 36.945 C 217.333 37.281,217.402 37.477,217.498 37.418 C 217.593 37.359,217.621 37.426,217.564 37.575 C 217.499 37.742,217.559 37.833,217.732 37.833 C 217.889 37.833,218.000 37.972,218.000 38.167 C 218.000 38.411,218.111 38.500,218.417 38.500 C 218.714 38.500,218.833 38.590,218.833 38.816 C 218.833 39.172,219.143 39.333,219.827 39.333 C 220.083 39.333,220.395 39.465,220.521 39.625 C 220.733 39.895,220.726 39.898,220.431 39.667 C 220.148 39.444,220.122 39.444,220.195 39.667 C 220.330 40.076,222.333 40.050,222.333 39.640 C 222.333 39.434,222.456 39.333,222.708 39.331 C 223.413 39.327,223.833 39.134,223.833 38.814 C 223.833 38.590,223.953 38.500,224.250 38.500 C 224.479 38.500,224.658 38.444,224.647 38.375 C 224.594 38.039,224.694 37.847,224.967 37.760 C 225.183 37.692,225.280 37.471,225.309 36.979 C 225.331 36.602,225.473 36.171,225.624 36.022 C 225.877 35.770,225.890 35.772,225.788 36.042 C 225.727 36.202,225.745 36.333,225.827 36.333 C 225.981 36.333,226.199 35.815,226.153 35.559 C 226.071 35.104,226.200 34.833,226.500 34.833 C 226.797 34.833,226.929 34.518,226.859 33.975 C 226.851 33.916,226.985 33.904,227.156 33.949 C 227.349 33.999,227.464 33.945,227.458 33.807 C 227.410 32.763,227.497 32.546,227.929 32.628 C 228.231 32.686,228.348 32.642,228.326 32.480 C 228.216 31.690,228.347 31.167,228.655 31.167 C 228.862 31.167,228.996 31.033,229.030 30.792 C 229.059 30.585,229.171 30.417,229.278 30.417 C 229.385 30.417,229.535 30.348,229.611 30.265 C 229.691 30.178,229.668 30.160,229.559 30.222 C 229.454 30.282,229.329 30.229,229.281 30.103 C 229.227 29.963,229.300 29.883,229.470 29.896 C 229.655 29.910,229.775 29.750,229.832 29.417 C 229.878 29.142,230.019 28.917,230.144 28.917 C 230.288 28.917,230.393 28.677,230.430 28.270 C 230.492 27.580,230.580 27.417,230.889 27.417 C 230.998 27.417,231.106 27.108,231.135 26.708 C 231.180 26.082,231.233 26.000,231.593 26.000 C 231.880 26.000,232.000 25.908,232.000 25.686 C 232.000 25.512,232.149 25.333,232.333 25.285 C 232.517 25.237,232.667 25.108,232.667 24.998 C 232.667 24.880,232.547 24.839,232.375 24.899 C 232.097 24.996,232.097 24.990,232.375 24.774 C 232.579 24.615,232.667 24.312,232.667 23.763 C 232.667 23.333,232.735 23.022,232.818 23.074 C 232.902 23.126,233.086 23.123,233.227 23.069 C 233.543 22.948,233.526 21.761,233.208 21.729 C 233.094 21.718,232.925 21.699,232.833 21.688 C 232.742 21.676,232.664 21.310,232.661 20.875 C 232.656 20.121,232.643 20.099,232.389 20.417 C 232.148 20.717,232.132 20.719,232.229 20.440 C 232.306 20.220,232.271 20.155,232.111 20.216 C 231.949 20.279,231.907 20.190,231.962 19.901 C 232.034 19.525,231.991 19.500,231.287 19.500 C 230.622 19.500,230.524 19.452,230.430 19.077 C 230.319 18.636,226.829 18.435,226.570 18.854 C 226.519 18.938,226.407 18.962,226.322 18.910 C 226.236 18.857,226.167 18.887,226.167 18.976 C 226.167 19.066,226.260 19.177,226.375 19.223 C 226.542 19.290,226.542 19.310,226.375 19.320 C 226.260 19.327,226.167 19.546,226.167 19.805 C 226.167 20.187,226.095 20.274,225.792 20.263 C 225.415 20.250,225.413 20.255,225.350 21.375 C 225.340 21.550,225.200 21.667,225.000 21.667 C 224.716 21.667,224.667 21.778,224.667 22.417 C 224.667 23.150,224.540 23.285,223.947 23.183 C 223.872 23.170,223.827 23.367,223.847 23.621 C 223.913 24.458,223.844 24.667,223.500 24.667 C 223.285 24.667,223.167 24.778,223.167 24.981 C 223.167 25.154,223.018 25.333,222.833 25.382 C 222.580 25.448,222.500 25.609,222.500 26.054 C 222.500 26.834,222.335 27.272,222.153 26.977 C 221.911 26.586,221.730 26.993,221.681 28.042 C 221.672 28.218,221.534 28.333,221.333 28.333 C 221.013 28.333,220.926 28.171,220.990 27.696 C 221.009 27.556,220.881 27.495,220.635 27.529 C 220.285 27.578,220.245 27.512,220.199 26.787 C 220.158 26.146,220.093 25.999,219.866 26.037 C 219.643 26.073,219.572 25.932,219.532 25.375 C 219.487 24.749,219.434 24.667,219.074 24.667 C 218.735 24.667,218.667 24.585,218.667 24.180 C 218.667 23.526,218.513 23.167,218.232 23.167 C 218.068 23.167,218.000 22.947,218.000 22.417 C 218.000 21.723,217.968 21.667,217.573 21.667 C 217.339 21.667,217.184 21.607,217.229 21.534 C 217.274 21.461,217.246 21.294,217.165 21.164 C 217.078 21.023,217.088 20.845,217.191 20.721 C 217.371 20.504,217.253 20.167,216.995 20.167 C 216.912 20.167,216.893 20.298,216.954 20.458 C 217.058 20.731,217.047 20.732,216.782 20.470 C 216.627 20.316,216.500 20.035,216.500 19.845 C 216.500 19.618,216.393 19.500,216.185 19.500 C 215.986 19.500,215.830 19.343,215.763 19.077 C 215.601 18.431,212.167 18.455,212.167 19.102 M240.893 19.117 C 240.805 19.469,239.707 19.677,238.779 19.516 C 238.704 19.502,238.680 19.553,238.727 19.629 C 238.867 19.857,238.576 20.182,238.205 20.210 C 238.013 20.224,237.889 20.289,237.929 20.353 C 238.163 20.732,237.770 20.976,236.804 21.050 C 236.650 21.062,236.550 21.112,236.581 21.163 C 236.680 21.323,236.258 21.750,236.000 21.750 C 235.825 21.750,235.735 21.963,235.699 22.458 C 235.657 23.031,235.585 23.167,235.324 23.167 C 235.115 23.167,235.000 23.281,235.000 23.488 C 235.000 23.695,234.866 23.829,234.625 23.863 C 234.245 23.917,234.223 23.982,234.182 25.167 C 234.168 25.568,234.116 25.678,234.016 25.520 C 233.617 24.891,233.513 25.632,233.514 29.089 C 233.515 32.529,233.527 32.667,233.841 32.667 C 234.184 32.667,234.220 32.803,234.168 33.898 C 234.142 34.450,234.181 34.530,234.426 34.436 C 234.678 34.339,234.685 34.360,234.483 34.604 C 234.277 34.852,234.292 34.869,234.626 34.763 C 234.944 34.662,235.000 34.705,235.000 35.053 C 235.000 35.321,235.114 35.491,235.333 35.548 C 235.533 35.600,235.667 35.776,235.667 35.984 C 235.667 36.215,235.773 36.333,235.981 36.333 C 236.154 36.333,236.333 36.482,236.382 36.667 C 236.434 36.866,236.609 37.000,236.818 37.000 C 237.079 37.000,237.167 37.105,237.167 37.417 C 237.167 37.753,237.249 37.833,237.595 37.833 C 237.947 37.833,238.004 37.892,237.917 38.167 C 237.821 38.467,237.887 38.500,238.572 38.500 C 239.207 38.500,239.333 38.552,239.333 38.814 C 239.333 39.254,239.590 39.289,242.767 39.289 C 245.874 39.289,246.000 39.270,246.000 38.816 C 246.000 38.300,247.456 38.356,247.530 38.875 C 247.583 39.245,247.617 39.250,250.250 39.267 C 252.862 39.284,253.338 39.246,253.308 39.026 C 253.261 38.665,253.373 38.500,253.667 38.500 C 253.996 38.500,254.000 38.389,254.000 29.333 C 254.000 22.667,253.949 20.167,253.813 20.167 C 253.675 20.167,253.675 20.108,253.811 19.943 C 254.046 19.660,253.852 19.444,253.572 19.676 C 253.427 19.796,253.330 19.796,253.255 19.675 C 253.196 19.579,252.966 19.500,252.745 19.500 C 252.457 19.500,252.371 19.430,252.440 19.250 C 252.492 19.112,252.448 19.000,252.341 19.000 C 252.234 19.000,252.191 18.930,252.244 18.843 C 252.302 18.748,251.536 18.699,250.295 18.718 C 248.372 18.748,248.250 18.770,248.250 19.083 C 248.250 19.323,248.121 19.431,247.792 19.469 C 247.540 19.498,247.332 19.611,247.331 19.719 C 247.329 19.837,247.262 19.815,247.164 19.667 C 247.018 19.444,246.982 19.444,246.836 19.667 C 246.726 19.834,246.671 19.848,246.669 19.708 C 246.667 19.562,246.321 19.500,245.502 19.500 C 244.393 19.500,244.339 19.482,244.377 19.125 C 244.440 18.531,241.043 18.522,240.893 19.117 M257.208 18.777 C 257.094 18.823,257.000 19.005,257.000 19.181 C 257.000 19.448,256.878 19.500,256.249 19.500 L 255.497 19.500 255.540 29.292 L 255.583 39.083 255.958 39.070 C 256.165 39.063,256.333 39.111,256.333 39.176 C 256.333 39.242,257.552 39.277,259.042 39.255 C 262.170 39.207,262.257 39.202,262.117 39.061 C 261.931 38.875,262.328 38.342,262.580 38.439 C 262.790 38.519,262.824 37.307,262.831 29.349 C 262.838 20.252,262.835 20.167,262.503 20.167 C 262.278 20.167,262.167 20.056,262.167 19.833 C 262.167 19.600,262.055 19.499,261.792 19.497 C 261.396 19.495,260.745 19.174,261.125 19.169 C 261.240 19.168,261.333 19.087,261.333 18.990 C 261.333 18.893,261.264 18.857,261.178 18.910 C 261.093 18.962,260.981 18.937,260.930 18.854 C 260.878 18.771,260.268 18.695,259.575 18.684 C 258.770 18.672,258.350 18.726,258.416 18.832 C 258.485 18.943,258.373 18.944,258.082 18.833 C 257.611 18.654,257.527 18.648,257.208 18.777 M47.970 20.012 C 47.935 20.386,47.964 20.728,48.036 20.772 C 48.108 20.817,48.167 20.511,48.167 20.093 C 48.167 19.150,48.057 19.105,47.970 20.012 M29.861 20.167 C 29.900 20.341,29.800 20.404,29.530 20.375 C 29.177 20.337,29.166 20.356,29.406 20.597 C 29.551 20.742,29.639 20.910,29.602 20.972 C 29.565 21.033,29.718 21.221,29.942 21.389 L 30.350 21.695 30.300 21.223 C 30.256 20.808,30.301 20.755,30.667 20.787 C 30.896 20.808,30.971 20.780,30.833 20.725 C 30.696 20.669,30.408 20.465,30.195 20.270 C 29.920 20.020,29.822 19.990,29.861 20.167 M24.784 20.351 C 24.916 20.482,25.055 20.484,25.276 20.356 C 25.545 20.199,25.523 20.176,25.092 20.172 C 24.733 20.168,24.650 20.216,24.784 20.351 M31.309 20.856 C 31.468 21.286,32.167 21.822,32.167 21.515 C 32.167 21.409,32.054 21.280,31.917 21.227 C 31.779 21.174,31.667 21.060,31.667 20.972 C 31.667 20.885,31.760 20.868,31.875 20.934 C 31.996 21.003,32.025 20.990,31.944 20.902 C 31.868 20.818,31.756 20.749,31.694 20.747 C 31.633 20.746,31.491 20.686,31.377 20.614 C 31.223 20.516,31.206 20.577,31.309 20.856 M22.895 21.442 C 22.561 21.784,22.558 21.810,22.847 21.885 C 23.225 21.984,23.578 21.600,23.388 21.298 C 23.280 21.127,23.172 21.158,22.895 21.442 M32.012 22.292 C 32.003 22.581,31.895 22.672,31.542 22.689 C 31.156 22.708,31.142 22.723,31.454 22.784 C 32.000 22.889,32.316 22.650,32.156 22.250 C 32.030 21.934,32.023 21.936,32.012 22.292 M21.704 23.575 C 21.743 24.042,21.884 23.991,21.920 23.497 C 21.933 23.315,21.883 23.167,21.807 23.167 C 21.732 23.167,21.686 23.351,21.704 23.575 M4.067 26.417 C 4.067 27.792,4.093 28.332,4.124 27.617 C 4.155 26.903,4.155 25.778,4.124 25.117 C 4.092 24.457,4.066 25.042,4.067 26.417 M48.361 24.479 C 48.184 24.592,48.195 24.642,48.416 24.727 C 48.804 24.876,48.833 24.866,48.833 24.583 C 48.833 24.303,48.690 24.271,48.361 24.479 M179.853 24.792 C 179.864 24.952,179.867 25.130,179.860 25.188 C 179.853 25.245,180.030 25.292,180.254 25.292 C 180.506 25.292,180.621 25.220,180.556 25.104 C 180.497 24.999,180.549 25.008,180.676 25.125 C 180.799 25.240,181.139 25.333,181.432 25.333 C 181.965 25.333,182.271 25.662,181.996 25.938 C 181.744 26.190,179.583 25.953,179.583 25.674 C 179.583 25.541,179.433 25.391,179.250 25.341 C 178.957 25.261,178.904 25.122,178.981 24.625 C 179.023 24.349,179.834 24.503,179.853 24.792 M19.375 25.750 C 19.377 26.117,19.411 26.247,19.451 26.040 C 19.491 25.832,19.490 25.532,19.448 25.373 C 19.406 25.214,19.374 25.383,19.375 25.750 M199.083 27.165 C 199.083 27.310,199.291 27.450,199.583 27.502 C 199.912 27.560,200.012 27.635,199.875 27.722 C 199.584 27.905,199.614 28.223,199.911 28.108 C 200.280 27.967,200.394 28.292,200.364 29.395 C 200.338 30.329,200.127 30.765,199.800 30.563 C 199.726 30.517,199.667 30.630,199.667 30.812 C 199.667 31.029,199.537 31.162,199.292 31.197 C 199.022 31.235,198.921 31.357,198.931 31.633 C 198.951 32.174,197.484 32.122,197.340 31.576 C 197.285 31.369,197.104 31.230,196.875 31.220 C 196.088 31.186,196.021 31.159,196.021 30.875 C 196.023 30.159,195.941 29.500,195.850 29.500 C 195.795 29.500,195.750 29.320,195.750 29.099 C 195.750 28.879,195.806 28.733,195.875 28.776 C 195.943 28.818,195.988 28.717,195.973 28.551 C 195.907 27.789,196.006 27.500,196.333 27.500 C 196.558 27.500,196.667 27.389,196.667 27.159 C 196.667 26.843,196.753 26.822,197.875 26.868 C 198.813 26.906,199.083 26.972,199.083 27.165 M244.606 27.125 C 244.594 27.285,244.696 27.427,244.833 27.439 C 244.971 27.451,245.196 27.471,245.333 27.483 C 245.513 27.499,245.527 27.541,245.384 27.632 C 245.139 27.787,245.325 28.083,245.667 28.083 C 246.146 28.083,246.112 30.461,245.632 30.529 C 245.368 30.567,245.253 30.691,245.260 30.932 C 245.268 31.200,245.181 31.271,244.885 31.238 C 244.577 31.205,244.500 31.277,244.500 31.598 C 244.500 31.962,244.431 32.000,243.768 32.000 C 243.067 32.000,242.686 31.707,242.912 31.340 C 242.956 31.269,242.825 31.220,242.621 31.230 C 242.388 31.243,242.268 31.165,242.298 31.021 C 242.331 30.868,242.254 30.828,242.067 30.900 C 241.831 30.990,241.820 30.967,241.997 30.754 C 242.174 30.540,242.152 30.500,241.854 30.500 C 241.512 30.500,241.388 30.110,241.491 29.358 C 241.511 29.214,241.444 29.180,241.303 29.265 C 241.130 29.369,241.125 29.346,241.277 29.157 C 241.498 28.884,241.500 28.875,241.500 28.083 C 241.500 27.572,241.552 27.500,241.917 27.500 C 242.222 27.500,242.333 27.411,242.333 27.167 C 242.333 26.866,242.444 26.833,243.481 26.833 C 244.473 26.833,244.626 26.873,244.606 27.125 M48.361 28.146 C 48.184 28.258,48.195 28.308,48.416 28.393 C 48.804 28.542,48.833 28.532,48.833 28.250 C 48.833 27.969,48.690 27.938,48.361 28.146 M19.431 29.542 C 19.454 29.748,19.478 29.957,19.486 30.006 C 19.494 30.055,19.662 30.108,19.861 30.123 C 20.059 30.138,20.322 30.266,20.445 30.408 C 20.567 30.550,20.578 30.591,20.467 30.499 C 20.357 30.408,20.190 30.333,20.096 30.333 C 20.003 30.333,20.099 30.455,20.310 30.603 C 21.105 31.159,21.112 30.564,20.319 29.839 C 19.469 29.062,19.374 29.030,19.431 29.542 M196.408 30.652 C 196.460 30.736,196.412 30.835,196.301 30.872 C 196.174 30.914,196.205 30.979,196.383 31.048 C 196.591 31.127,196.667 31.068,196.667 30.828 C 196.667 30.648,196.587 30.500,196.490 30.500 C 196.393 30.500,196.356 30.569,196.408 30.652 M22.833 30.970 C 22.624 31.065,22.642 31.141,22.944 31.438 C 23.289 31.777,23.309 31.778,23.387 31.480 C 23.440 31.279,23.381 31.167,23.225 31.167 C 23.090 31.167,23.027 31.092,23.083 31.000 C 23.199 30.813,23.184 30.811,22.833 30.970 M29.927 31.678 C 29.678 31.930,29.571 31.956,29.453 31.793 C 29.351 31.651,29.336 31.687,29.407 31.903 C 29.467 32.087,29.420 32.281,29.297 32.359 C 29.140 32.459,29.160 32.496,29.375 32.497 C 29.731 32.501,30.333 31.926,30.333 31.583 C 30.333 31.275,30.325 31.277,29.927 31.678 M22.262 32.148 C 22.211 32.229,22.301 32.398,22.460 32.523 C 22.722 32.728,22.728 32.722,22.521 32.458 C 22.264 32.131,22.490 32.057,22.800 32.367 C 22.934 32.500,23.000 32.506,23.000 32.384 C 23.000 32.284,22.881 32.157,22.736 32.101 C 22.395 31.970,22.370 31.972,22.262 32.148 M47.961 32.125 C 47.928 32.194,47.951 32.550,48.011 32.917 L 48.119 33.583 48.143 32.792 C 48.165 32.055,48.102 31.825,47.961 32.125 M179.048 33.000 C 179.126 33.299,179.053 33.333,178.346 33.333 C 177.479 33.333,177.311 33.252,177.446 32.900 C 177.597 32.506,178.941 32.589,179.048 33.000 M4.833 34.004 C 4.833 34.543,6.178 36.217,6.305 35.836 C 6.340 35.729,6.212 35.529,6.018 35.394 C 5.658 35.142,5.512 34.718,5.859 34.933 C 5.979 35.007,6.006 34.978,5.931 34.856 C 5.865 34.749,5.751 34.698,5.677 34.743 C 5.440 34.890,4.954 34.193,5.047 33.839 C 5.096 33.652,5.067 33.500,4.984 33.500 C 4.901 33.500,4.833 33.727,4.833 34.004 M25.090 34.023 C 25.184 34.760,25.300 34.800,25.300 34.094 C 25.300 33.767,25.238 33.500,25.162 33.500 C 25.086 33.500,25.054 33.735,25.090 34.023 M27.821 33.542 C 27.678 34.008,27.716 34.167,27.928 33.990 C 28.057 33.883,28.122 33.729,28.072 33.648 C 27.985 33.508,27.849 33.450,27.821 33.542 M47.549 34.657 C 47.358 34.834,47.164 34.942,47.118 34.896 C 47.071 34.849,46.977 34.903,46.908 35.015 C 46.827 35.145,46.851 35.175,46.974 35.099 C 47.080 35.034,47.167 35.055,47.167 35.146 C 47.167 35.236,47.009 35.361,46.817 35.422 C 46.569 35.501,46.518 35.585,46.644 35.711 C 46.816 35.883,48.000 34.797,48.000 34.467 C 48.000 34.271,47.934 34.298,47.549 34.657 M27.542 35.250 C 27.544 35.617,27.578 35.747,27.618 35.540 C 27.658 35.332,27.656 35.032,27.615 34.873 C 27.573 34.714,27.540 34.883,27.542 35.250 M6.408 37.058 C 6.434 37.812,8.062 39.836,8.639 39.831 C 8.862 39.829,8.871 39.799,8.687 39.683 C 8.561 39.603,8.504 39.462,8.560 39.371 C 8.617 39.279,8.539 39.102,8.388 38.977 C 8.236 38.852,7.967 38.525,7.789 38.250 C 7.610 37.975,7.513 37.896,7.573 38.075 C 7.645 38.289,7.480 38.192,7.091 37.792 C 6.482 37.165,6.285 36.783,6.779 37.188 C 7.022 37.387,7.020 37.357,6.760 36.958 C 6.386 36.384,6.386 36.384,6.408 37.058 M45.407 37.792 C 45.147 38.191,45.145 38.220,45.388 38.021 C 45.559 37.880,45.667 37.862,45.667 37.974 C 45.667 38.198,45.082 38.527,44.939 38.383 C 44.881 38.325,44.833 38.403,44.833 38.556 C 44.833 38.708,44.725 38.833,44.593 38.833 C 44.245 38.833,44.107 39.144,44.333 39.417 C 44.441 39.546,44.473 39.749,44.404 39.868 C 44.336 39.986,44.629 39.735,45.057 39.308 C 45.484 38.882,45.833 38.463,45.833 38.376 C 45.833 38.289,45.983 38.083,46.167 37.917 C 46.651 37.478,46.575 37.246,46.058 37.585 C 45.664 37.843,45.627 37.845,45.719 37.604 C 45.875 37.197,45.741 37.278,45.407 37.792 M8.503 40.241 C 8.498 40.503,9.377 41.334,9.656 41.331 C 9.869 41.329,9.875 41.302,9.687 41.183 C 9.553 41.098,9.512 40.949,9.588 40.826 C 9.668 40.696,9.651 40.657,9.543 40.723 C 9.447 40.783,9.323 40.715,9.269 40.572 C 9.214 40.429,9.085 40.364,8.983 40.427 C 8.880 40.491,8.731 40.439,8.651 40.313 C 8.571 40.187,8.504 40.154,8.503 40.241 M43.833 40.615 C 43.509 40.714,42.790 41.619,42.862 41.836 C 42.893 41.928,43.246 41.665,43.647 41.252 C 44.350 40.526,44.372 40.450,43.833 40.615 M41.238 42.981 C 41.335 43.138,40.938 43.549,40.812 43.423 C 40.771 43.382,40.721 43.550,40.701 43.796 C 40.664 44.240,40.666 44.241,40.981 43.913 C 41.376 43.503,41.595 42.833,41.335 42.833 C 41.231 42.833,41.188 42.900,41.238 42.981 M11.503 43.112 C 11.499 43.384,12.321 44.334,12.556 44.331 C 12.677 44.329,12.663 44.273,12.520 44.183 C 12.394 44.103,12.340 43.958,12.400 43.860 C 12.460 43.763,12.338 43.593,12.130 43.483 C 11.921 43.373,11.695 43.201,11.628 43.100 C 11.541 42.970,11.504 42.974,11.503 43.112 M13.089 44.323 C 12.868 44.682,15.234 46.484,15.875 46.445 C 16.432 46.411,16.432 46.436,15.875 46.073 C 15.476 45.814,15.446 45.811,15.645 46.054 C 16.058 46.557,15.664 46.346,15.033 45.727 C 14.533 45.235,14.496 45.158,14.833 45.321 L 15.250 45.522 14.838 45.191 C 14.611 45.009,14.368 44.895,14.296 44.940 C 14.225 44.984,14.167 44.946,14.167 44.855 C 14.167 44.398,13.306 43.973,13.089 44.323 M38.915 44.531 C 38.673 44.721,38.408 45.055,38.325 45.272 C 38.242 45.489,38.089 45.667,37.984 45.667 C 37.852 45.667,37.862 45.576,38.016 45.375 C 38.139 45.215,38.036 45.265,37.787 45.487 C 37.333 45.892,37.187 46.110,37.500 45.917 C 37.592 45.860,37.667 45.889,37.667 45.982 C 37.667 46.074,37.535 46.227,37.375 46.320 C 37.182 46.433,37.160 46.492,37.309 46.495 C 37.434 46.498,37.771 46.315,38.059 46.089 C 39.018 45.338,39.833 44.600,39.833 44.484 C 39.833 44.192,39.312 44.219,38.915 44.531 M16.901 46.359 C 16.721 46.650,18.226 48.000,18.730 48.000 C 18.960 48.000,19.189 47.932,19.240 47.849 C 19.292 47.766,19.181 47.738,18.995 47.786 C 18.640 47.879,17.943 47.393,18.090 47.156 C 18.135 47.083,18.084 46.969,17.977 46.902 C 17.855 46.827,17.826 46.854,17.901 46.974 C 17.966 47.080,17.942 47.167,17.847 47.167 C 17.753 47.167,17.559 46.942,17.417 46.667 C 17.130 46.113,17.074 46.079,16.901 46.359 M35.145 46.792 C 34.938 47.056,34.944 47.062,35.208 46.855 C 35.408 46.698,35.500 46.687,35.500 46.818 C 35.500 47.013,35.237 47.161,34.768 47.230 C 34.626 47.251,34.451 47.332,34.380 47.411 C 34.308 47.489,34.353 47.493,34.480 47.420 C 34.636 47.330,34.686 47.360,34.634 47.514 C 34.593 47.639,34.377 47.792,34.154 47.854 C 33.804 47.952,33.796 47.969,34.093 47.983 C 34.442 48.000,35.140 47.547,35.799 46.875 L 36.167 46.500 35.770 46.500 C 35.552 46.500,35.271 46.631,35.145 46.792 M23.167 48.708 C 23.167 48.777,24.667 48.833,26.500 48.833 C 28.333 48.833,29.833 48.777,29.833 48.708 C 29.834 48.640,28.334 48.583,26.500 48.583 C 24.667 48.583,23.167 48.640,23.167 48.708 " stroke="none" fill="#349bdc" fill-rule="evenodd"></path><path id="path3" d="" stroke="none" fill="#d4100ec" fill-rule="evenodd"></path><path id="path4" d="" stroke="none" fill="#d4100ec" fill-rule="evenodd"></path></g></svg>